{
  "accessors": [
    {
      "bufferView": 0,
      "componentType": 5123,
      "count": 102,
      "type": "SCALAR"
    },
    {
      "bufferView": 1,
      "componentType": 5126,
      "count": 36,
      "max": [
        20.915599822998047,
        6.8813910484313965,
        -49.65897750854492
      ],
      "min": [
        -20.915578842163086,
        6.881330490112305,
        -73.18901824951172
      ],
      "type": "VEC3"
    },
    {
      "bufferView": 2,
      "componentType": 5126,
      "count": 36,
      "type": "VEC3"
    },
    {
      "bufferView": 3,
      "componentType": 5126,
      "count": 36,
      "type": "VEC2"
    },
    {
      "bufferView": 4,
      "componentType": 5123,
      "count": 1980,
      "type": "SCALAR"
    },
    {
      "bufferView": 5,
      "componentType": 5126,
      "count": 363,
      "max": [
        12.753806114196777,
        14.115586280822754,
        9.14908504486084
      ],
      "min": [
        -12.753806114196777,
        -9.00244140625,
        3.6680946350097656
      ],
      "type": "VEC3"
    },
    {
      "bufferView": 6,
      "componentType": 5126,
      "count": 363,
      "type": "VEC3"
    },
    {
      "bufferView": 7,
      "componentType": 5126,
      "count": 363,
      "type": "VEC2"
    },
    {
      "bufferView": 8,
      "componentType": 5123,
      "count": 219,
      "type": "SCALAR"
    },
    {
      "bufferView": 9,
      "componentType": 5126,
      "count": 61,
      "max": [
        12.538742065429688,
        19.96199607849121,
        -23.382495880126953
      ],
      "min": [
        -12.53873062133789,
        8.909842491149902,
        -47.08197021484375
      ],
      "type": "VEC3"
    },
    {
      "bufferView": 10,
      "componentType": 5126,
      "count": 61,
      "type": "VEC3"
    },
    {
      "bufferView": 11,
      "componentType": 5126,
      "count": 61,
      "type": "VEC2"
    },
    {
      "bufferView": 12,
      "componentType": 5123,
      "count": 5706,
      "type": "SCALAR"
    },
    {
      "bufferView": 13,
      "componentType": 5126,
      "count": 2149,
      "max": [
        28.762666702270508,
        21.194272994995117,
        -1.3649789094924927
      ],
      "min": [
        -28.762666702270508,
        -22.99643898010254,
        -73.18901824951172
      ],
      "type": "VEC3"
    },
    {
      "bufferView": 14,
      "componentType": 5126,
      "count": 2149,
      "type": "VEC3"
    },
    {
      "bufferView": 15,
      "componentType": 5126,
      "count": 2149,
      "type": "VEC2"
    },
    {
      "bufferView": 16,
      "componentType": 5123,
      "count": 18423,
      "type": "SCALAR"
    },
    {
      "bufferView": 17,
      "componentType": 5126,
      "count": 4493,
      "max": [
        29.710254669189453,
        20.38023567199707,
        9.963210105895996
      ],
      "min": [
        -29.710256576538086,
        -20.380231857299805,
        -73.18901824951172
      ],
      "type": "VEC3"
    },
    {
      "bufferView": 18,
      "componentType": 5126,
      "count": 4493,
      "type": "VEC3"
    },
    {
      "bufferView": 19,
      "componentType": 5126,
      "count": 4493,
      "type": "VEC2"
    }
  ],
  "asset": {
    "minVersion": "2.0",
    "version": "2.0"
  },
  "bufferViews": [
    {
      "buffer": 0,
      "byteLength": 204,
      "target": 34963
    },
    {
      "buffer": 0,
      "byteLength": 432,
      "byteOffset": 204,
      "target": 34962
    },
    {
      "buffer": 0,
      "byteLength": 432,
      "byteOffset": 636,
      "target": 34962
    },
    {
      "buffer": 0,
      "byteLength": 288,
      "byteOffset": 1068,
      "target": 34962
    },
    {
      "buffer": 1,
      "byteLength": 3960,
      "target": 34963
    },
    {
      "buffer": 1,
      "byteLength": 4356,
      "byteOffset": 3960,
      "target": 34962
    },
    {
      "buffer": 1,
      "byteLength": 4356,
      "byteOffset": 8316,
      "target": 34962
    },
    {
      "buffer": 1,
      "byteLength": 2904,
      "byteOffset": 12672,
      "target": 34962
    },
    {
      "buffer": 2,
      "byteLength": 438,
      "target": 34963
    },
    {
      "buffer": 2,
      "byteLength": 732,
      "byteOffset": 440,
      "target": 34962
    },
    {
      "buffer": 2,
      "byteLength": 732,
      "byteOffset": 1172,
      "target": 34962
    },
    {
      "buffer": 2,
      "byteLength": 488,
      "byteOffset": 1904,
      "target": 34962
    },
    {
      "buffer": 3,
      "byteLength": 11412,
      "target": 34963
    },
    {
      "buffer": 3,
      "byteLength": 25788,
      "byteOffset": 11412,
      "target": 34962
    },
    {
      "buffer": 3,
      "byteLength": 25788,
      "byteOffset": 37200,
      "target": 34962
    },
    {
      "buffer": 3,
      "byteLength": 17192,
      "byteOffset": 62988,
      "target": 34962
    },
    {
      "buffer": 4,
      "byteLength": 36846,
      "target": 34963
    },
    {
      "buffer": 4,
      "byteLength": 53916,
      "byteOffset": 36848,
      "target": 34962
    },
    {
      "buffer": 4,
      "byteLength": 53916,
      "byteOffset": 90764,
      "target": 34962
    },
    {
      "buffer": 4,
      "byteLength": 35944,
      "byteOffset": 144680,
      "target": 34962
    }
  ],
  "buffers": [
    {
      "byteLength": 1356,
      "uri": "data:application/gltf-buffer;base64,"
    },
    {
      "byteLength": 15576,
      "uri": "data:application/gltf-buffer;base64,"
    },
    {
      "byteLength": 2392,
      "uri": "data:application/gltf-buffer;base64,"
    },
    {
      "byteLength": 80180,
      "uri": "data:application/gltf-buffer;base64,"
    },
    {
      "byteLength": 180624,
      "uri": "data:application/gltf-buffer;base64,"
    }
  ],
  "images": [
    {
      "mimeType": "image/png",
      "name": "Screen_2_Color",
      "uri": "288d754a3fb5199c07278aa1e889259c.png"
    },
    {
      "mimeType": "image/png",
      "name": "Robot_mat_Emissive",
      "uri": "cf3bcdd483ef6bf07dc1fba58d988ef6.png"
    },
    {
      "mimeType": "image/png",
      "name": "Robot_mat_ORM",
      "uri": "86677bb00f5b899e5b8123e68b1e4d7b.png"
    },
    {
      "mimeType": "image/png",
      "name": "Screen_1_Color",
      "uri": "82f7622c553a011ccb45883b167253b8.png"
    },
    {
      "mimeType": "image/png",
      "name": "Robot_mat_Color",
      "uri": "c6378ca88952228817e344695bd6ec8c.png"
    }
  ],
  "materials": [
    {
      "doubleSided": true,
      "emissiveFactor": [
        0,
        0.5088592171669006,
        1
      ],
      "name": "propellers_mat",
      "pbrMetallicRoughness": {
        "baseColorFactor": [
          0,
          0.5088714957237244,
          1,
          1
        ],
        "metallicFactor": 0,
        "roughnessFactor": 0.05000000074505806
      }
    },
    {
      "doubleSided": true,
      "emissiveFactor": [
        1,
        1,
        1
      ],
      "emissiveTexture": {
        "index": 2
      },
      "name": "screenBody_mat",
      "pbrMetallicRoughness": {
        "baseColorTexture": {
          "index": 7
        },
        "metallicFactor": 0,
        "roughnessFactor": 0.05000000074505806
      }
    },
    {
      "doubleSided": true,
      "emissiveFactor": [
        1,
        1,
        1
      ],
      "emissiveTexture": {
        "index": 4
      },
      "name": "screenFace_mat",
      "pbrMetallicRoughness": {
        "baseColorTexture": {
          "index": 0
        },
        "metallicFactor": 0,
        "roughnessFactor": 0.05000000074505806
      }
    },
    {
      "doubleSided": true,
      "emissiveFactor": [
        1,
        1,
        1
      ],
      "emissiveTexture": {
        "index": 1
      },
      "name": "robotColor_mat",
      "occlusionTexture": {
        "index": 3
      },
      "pbrMetallicRoughness": {
        "baseColorFactor": [
          1,
          0.14126592874526978,
          0,
          1
        ],
        "metallicRoughnessTexture": {
          "index": 3
        }
      }
    },
    {
      "doubleSided": true,
      "emissiveFactor": [
        1,
        1,
        1
      ],
      "emissiveTexture": {
        "index": 5
      },
      "name": "robotBase_mat",
      "occlusionTexture": {
        "index": 6
      },
      "pbrMetallicRoughness": {
        "baseColorTexture": {
          "index": 8
        },
        "metallicRoughnessTexture": {
          "index": 6
        }
      }
    }
  ],
  "meshes": [
    {
      "name": "robot_geo",
      "primitives": [
        {
          "attributes": {
            "NORMAL": 18,
            "POSITION": 17,
            "TEXCOORD_0": 19
          },
          "indices": 16,
          "material": 4
        },
        {
          "attributes": {
            "NORMAL": 14,
            "POSITION": 13,
            "TEXCOORD_0": 15
          },
          "indices": 12,
          "material": 3
        },
        {
          "attributes": {
            "NORMAL": 2,
            "POSITION": 1,
            "TEXCOORD_0": 3
          },
          "indices": 0,
          "material": 2
        },
        {
          "attributes": {
            "NORMAL": 10,
            "POSITION": 9,
            "TEXCOORD_0": 11
          },
          "indices": 8,
          "material": 1
        },
        {
          "attributes": {
            "NORMAL": 6,
            "POSITION": 5,
            "TEXCOORD_0": 7
          },
          "indices": 4,
          "material": 0
        }
      ]
    }
  ],
  "nodes": [
    {
      "extras": {
        "meta_spatial": {
          "entity_id": "robot1"
        }
      },
      "mesh": 0,
      "name": "robot",
      "rotation": [
        0.7071068286895752,
        0,
        0,
        0.7071068286895752
      ],
      "scale": [
        0.009999999776482582,
        0.009999999776482582,
        0.009999999776482582
      ],
      "translation": [
        0,
        -0.6000000238418579,
        0
      ]
    }
  ],
  "scene": 0,
  "scenes": [
    {
      "nodes": [
        0
      ]
    }
  ],
  "textures": [
    {
      "name": "texture7",
      "source": 3
    },
    {
      "name": "texture4",
      "source": 1
    },
    {
      "name": "texture8",
      "source": 0
    },
    {
      "name": "texture5",
      "source": 2
    },
    {
      "name": "texture6",
      "source": 3
    },
    {
      "name": "texture1",
      "source": 1
    },
    {
      "name": "texture2",
      "source": 2
    },
    {
      "name": "texture9",
      "source": 0
    },
    {
      "name": "texture3",
      "source": 4
    }
  ]
}